<svg width="32" height="32" viewBox="0 0 32 32" fill="none" xmlns="http://www.w3.org/2000/svg">
<path d="M4 16.3415C4 11.8082 7.46 8.16949 11.7744 8.16949C13.7837 8.16949 15.6394 9.00235 17.011 10.3762C19.404 12.7905 21.4928 12.6408 23.844 10.2642C24.9715 9.12731 26.5165 8.46364 28.1933 8.46364C31.693 8.46364 34.5333 11.4486 34.5333 15.1288C34.5333 18.809 31.693 21.794 28.1933 21.794C26.5165 21.794 24.9715 21.1303 23.844 19.9934C21.4935 17.617 19.4054 17.4671 17.0128 19.8803C15.6411 21.2551 13.7846 22.0881 11.7744 22.0881C7.46 22.0881 4 18.4493 4 14.916V16.3415Z" fill="#F2F5FA"/>
<path d="M4 16.3415C4 11.8082 7.46 8.16949 11.7744 8.16949C13.7837 8.16949 15.6394 9.00235 17.011 10.3762C19.404 12.7905 21.4928 12.6408 23.844 10.2642C24.9715 9.12731 26.5165 8.46364 28.1933 8.46364C31.693 8.46364 34.5333 11.4486 34.5333 15.1288C34.5333 18.809 31.693 21.794 28.1933 21.794C26.5165 21.794 24.9715 21.1303 23.844 19.9934C21.4935 17.617 19.4054 17.4671 17.0128 19.8803C15.6411 21.2551 13.7846 22.0881 11.7744 22.0881C7.46 22.0881 4 18.4493 4 14.916V16.3415Z" fill="url(#paint0_linear_fav)"/>
<path d="M4 16.3415C4 11.8082 7.46 8.16949 11.7744 8.16949C13.7837 8.16949 15.6394 9.00235 17.011 10.3762C19.404 12.7905 21.4928 12.6408 23.844 10.2642C24.9715 9.12731 26.5165 8.46364 28.1933 8.46364C31.693 8.46364 34.5333 11.4486 34.5333 15.1288C34.5333 18.809 31.693 21.794 28.1933 21.794C26.5165 21.794 24.9715 21.1303 23.844 19.9934C21.4935 17.617 19.4054 17.4671 17.0128 19.8803C15.6411 21.2551 13.7846 22.0881 11.7744 22.0881C7.46 22.0881 4 18.4493 4 14.916V16.3415Z" fill="url(#paint1_linear_fav)"/>
<path d="M4 16.3415C4 11.8082 7.46 8.16949 11.7744 8.16949C13.7837 8.16949 15.6394 9.00235 17.011 10.3762C19.404 12.7905 21.4928 12.6408 23.844 10.2642C24.9715 9.12731 26.5165 8.46364 28.1933 8.46364C31.693 8.46364 34.5333 11.4486 34.5333 15.1288C34.5333 18.809 31.693 21.794 28.1933 21.794C26.5165 21.794 24.9715 21.1303 23.844 19.9934C21.4935 17.617 19.4054 17.4671 17.0128 19.8803C15.6411 21.2551 13.7846 22.0881 11.7744 22.0881C7.46 22.0881 4 18.4493 4 14.916V16.3415Z" fill="url(#paint2_radial_fav)"/>
<path d="M4 16.3415C4 11.8082 7.46 8.16949 11.7744 8.16949C13.7837 8.16949 15.6394 9.00235 17.011 10.3762C19.404 12.7905 21.4928 12.6408 23.844 10.2642C24.9715 9.12731 26.5165 8.46364 28.1933 8.46364C31.693 8.46364 34.5333 11.4486 34.5333 15.1288C34.5333 18.809 31.693 21.794 28.1933 21.794C26.5165 21.794 24.9715 21.1303 23.844 19.9934C21.4935 17.617 19.4054 17.4671 17.0128 19.8803C15.6411 21.2551 13.7846 22.0881 11.7744 22.0881C7.46 22.0881 4 18.4493 4 14.916V16.3415Z" fill="url(#paint3_radial_fav)"/>
<path d="M4 16.3415C4 11.8082 7.46 8.16949 11.7744 8.16949C13.7837 8.16949 15.6394 9.00235 17.011 10.3762C19.404 12.7905 21.4928 12.6408 23.844 10.2642C24.9715 9.12731 26.5165 8.46364 28.1933 8.46364C31.693 8.46364 34.5333 11.4486 34.5333 15.1288C34.5333 18.809 31.693 21.794 28.1933 21.794C26.5165 21.794 24.9715 21.1303 23.844 19.9934C21.4935 17.617 19.4054 17.4671 17.0128 19.8803C15.6411 21.2551 13.7846 22.0881 11.7744 22.0881C7.46 22.0881 4 18.4493 4 14.916V16.3415Z" fill="url(#paint4_radial_fav)"/>
<defs>
<linearGradient id="paint0_linear_fav" x1="28" y1="19" x2="8" y2="6" gradientUnits="userSpaceOnUse">
<stop stop-color="#FF557E"/>
<stop offset="0.841052" stop-color="#FF5555" stop-opacity="0"/>
</linearGradient>
<linearGradient id="paint1_linear_fav" x1="11.7744" y1="21" x2="17" y2="6" gradientUnits="userSpaceOnUse">
<stop stop-color="#58CCDC"/>
<stop offset="1" stop-color="#58CCDC" stop-opacity="0"/>
</linearGradient>
<radialGradient id="paint2_radial_fav" cx="0" cy="0" r="1" gradientTransform="matrix(-12 -18 16 -11 28 24)" gradientUnits="userSpaceOnUse">
<stop stop-color="#8263DB"/>
<stop offset="0.568731" stop-color="#8172DA" stop-opacity="0.26"/>
<stop offset="1" stop-color="#8172DA" stop-opacity="0"/>
</radialGradient>
<radialGradient id="paint3_radial_fav" cx="0" cy="0" r="1" gradientTransform="matrix(3 15 -22 5 14 7)" gradientUnits="userSpaceOnUse">
<stop stop-color="#41D1B7"/>
<stop offset="0.492704" stop-color="#41D1B7" stop-opacity="0.35"/>
<stop offset="1" stop-color="#41D1B7" stop-opacity="0"/>
</radialGradient>
<radialGradient id="paint4_radial_fav" cx="0" cy="0" r="1" gradientTransform="matrix(-9 14 -27 -21 35 4)" gradientUnits="userSpaceOnUse">
<stop stop-color="#FFEC45"/>
<stop offset="0.549191" stop-color="#FFEC45" stop-opacity="0.3"/>
<stop offset="0.961144" stop-color="#FFEC45" stop-opacity="0"/>
</radialGradient>
</defs>
</svg>
