<svg width="66" height="36" viewBox="0 0 66 36" fill="none" xmlns="http://www.w3.org/2000/svg">
<path d="M0 17.5902C7.91162e-07 7.87538 7.33634 -8.49289e-07 16.3862 0C21.2927 4.60462e-07 25.6956 2.31491 28.6986 5.9828C34.1474 12.5497 38.6531 12.2042 43.438 7.35626C45.7857 4.97673 48.9521 3.51803 52.4358 3.51803C59.6756 3.51804 65.5447 9.81834 65.5447 17.5902C65.5447 25.362 59.6756 31.6623 52.4358 31.6623C48.9521 31.6623 45.7857 30.2035 43.438 27.824C38.6542 22.9772 34.1496 22.6307 28.7026 29.1926C25.6994 32.8634 21.2948 35.1803 16.3862 35.1803C7.33634 35.1803 -7.9116e-07 27.3049 0 17.5902Z" fill="#F2F5FA"/>
<path d="M0 17.5902C7.91162e-07 7.87538 7.33634 -8.49289e-07 16.3862 0C21.2927 4.60462e-07 25.6956 2.31491 28.6986 5.9828C34.1474 12.5497 38.6531 12.2042 43.438 7.35626C45.7857 4.97673 48.9521 3.51803 52.4358 3.51803C59.6756 3.51804 65.5447 9.81834 65.5447 17.5902C65.5447 25.362 59.6756 31.6623 52.4358 31.6623C48.9521 31.6623 45.7857 30.2035 43.438 27.824C38.6542 22.9772 34.1496 22.6307 28.7026 29.1926C25.6994 32.8634 21.2948 35.1803 16.3862 35.1803C7.33634 35.1803 -7.9116e-07 27.3049 0 17.5902Z" fill="url(#paint0_linear_0_1)"/>
<path d="M0 17.5902C7.91162e-07 7.87538 7.33634 -8.49289e-07 16.3862 0C21.2927 4.60462e-07 25.6956 2.31491 28.6986 5.9828C34.1474 12.5497 38.6531 12.2042 43.438 7.35626C45.7857 4.97673 48.9521 3.51803 52.4358 3.51803C59.6756 3.51804 65.5447 9.81834 65.5447 17.5902C65.5447 25.362 59.6756 31.6623 52.4358 31.6623C48.9521 31.6623 45.7857 30.2035 43.438 27.824C38.6542 22.9772 34.1496 22.6307 28.7026 29.1926C25.6994 32.8634 21.2948 35.1803 16.3862 35.1803C7.33634 35.1803 -7.9116e-07 27.3049 0 17.5902Z" fill="url(#paint1_linear_0_1)"/>
<path d="M0 17.5902C7.91162e-07 7.87538 7.33634 -8.49289e-07 16.3862 0C21.2927 4.60462e-07 25.6956 2.31491 28.6986 5.9828C34.1474 12.5497 38.6531 12.2042 43.438 7.35626C45.7857 4.97673 48.9521 3.51803 52.4358 3.51803C59.6756 3.51804 65.5447 9.81834 65.5447 17.5902C65.5447 25.362 59.6756 31.6623 52.4358 31.6623C48.9521 31.6623 45.7857 30.2035 43.438 27.824C38.6542 22.9772 34.1496 22.6307 28.7026 29.1926C25.6994 32.8634 21.2948 35.1803 16.3862 35.1803C7.33634 35.1803 -7.9116e-07 27.3049 0 17.5902Z" fill="url(#paint2_radial_0_1)"/>
<path d="M0 17.5902C7.91162e-07 7.87538 7.33634 -8.49289e-07 16.3862 0C21.2927 4.60462e-07 25.6956 2.31491 28.6986 5.9828C34.1474 12.5497 38.6531 12.2042 43.438 7.35626C45.7857 4.97673 48.9521 3.51803 52.4358 3.51803C59.6756 3.51804 65.5447 9.81834 65.5447 17.5902C65.5447 25.362 59.6756 31.6623 52.4358 31.6623C48.9521 31.6623 45.7857 30.2035 43.438 27.824C38.6542 22.9772 34.1496 22.6307 28.7026 29.1926C25.6994 32.8634 21.2948 35.1803 16.3862 35.1803C7.33634 35.1803 -7.9116e-07 27.3049 0 17.5902Z" fill="url(#paint3_radial_0_1)"/>
<path d="M0 17.5902C7.91162e-07 7.87538 7.33634 -8.49289e-07 16.3862 0C21.2927 4.60462e-07 25.6956 2.31491 28.6986 5.9828C34.1474 12.5497 38.6531 12.2042 43.438 7.35626C45.7857 4.97673 48.9521 3.51803 52.4358 3.51803C59.6756 3.51804 65.5447 9.81834 65.5447 17.5902C65.5447 25.362 59.6756 31.6623 52.4358 31.6623C48.9521 31.6623 45.7857 30.2035 43.438 27.824C38.6542 22.9772 34.1496 22.6307 28.7026 29.1926C25.6994 32.8634 21.2948 35.1803 16.3862 35.1803C7.33634 35.1803 -7.9116e-07 27.3049 0 17.5902Z" fill="url(#paint4_radial_0_1)"/>
<defs>
<linearGradient id="paint0_linear_0_1" x1="49.3801" y1="26.333" x2="9.66698" y2="-2.41677" gradientUnits="userSpaceOnUse">
<stop stop-color="#FF557E"/>
<stop offset="0.841052" stop-color="#FF5555" stop-opacity="0"/>
</linearGradient>
<linearGradient id="paint1_linear_0_1" x1="16.3888" y1="32.8212" x2="27.8722" y2="-4.23618" gradientUnits="userSpaceOnUse">
<stop stop-color="#58CCDC"/>
<stop offset="1" stop-color="#58CCDC" stop-opacity="0"/>
</linearGradient>
<radialGradient id="paint2_radial_0_1" cx="0" cy="0" r="1" gradientTransform="matrix(-22.7602 -37.7266 28.778 -20.0067 51.405 42.5087)" gradientUnits="userSpaceOnUse">
<stop stop-color="#8263DB"/>
<stop offset="0.568731" stop-color="#8172DA" stop-opacity="0.26"/>
<stop offset="1" stop-color="#8172DA" stop-opacity="0"/>
</radialGradient>
<radialGradient id="paint3_radial_0_1" cx="0" cy="0" r="1" gradientTransform="matrix(6.02038 29.5775 -43.3073 10.158 20.6829 -5.08906)" gradientUnits="userSpaceOnUse">
<stop stop-color="#41D1B7"/>
<stop offset="0.492704" stop-color="#41D1B7" stop-opacity="0.35"/>
<stop offset="1" stop-color="#41D1B7" stop-opacity="0"/>
</radialGradient>
<radialGradient id="paint4_radial_0_1" cx="0" cy="0" r="1" gradientTransform="matrix(-17.6232 26.9047 -53.0863 -40.0704 67.4033 -13.0344)" gradientUnits="userSpaceOnUse">
<stop stop-color="#FFEC45"/>
<stop offset="0.549191" stop-color="#FFEC45" stop-opacity="0.3"/>
<stop offset="0.961144" stop-color="#FFEC45" stop-opacity="0"/>
</radialGradient>
</defs>
</svg>
